<svg width="14" height="8" viewBox="0 0 14 8" fill="none" xmlns="http://www.w3.org/2000/svg">
<path d="M7.71045 7.53998L13.3605 1.87998C13.4542 1.78702 13.5286 1.67642 13.5793 1.55456C13.6301 1.4327 13.6562 1.30199 13.6562 1.16998C13.6562 1.03797 13.6301 0.907264 13.5793 0.785405C13.5286 0.663546 13.4542 0.552945 13.3605 0.459982C13.1731 0.273731 12.9196 0.169189 12.6555 0.169189C12.3913 0.169189 12.1378 0.273731 11.9505 0.459982L6.95045 5.40998L2.00045 0.459982C1.81309 0.273731 1.55964 0.169189 1.29545 0.169189C1.03127 0.169189 0.777815 0.273731 0.590452 0.459982C0.495964 0.552597 0.420794 0.663042 0.369297 0.784917C0.317801 0.906792 0.291002 1.03767 0.290453 1.16998C0.291002 1.30229 0.317801 1.43317 0.369297 1.55505C0.420794 1.67692 0.495964 1.78737 0.590452 1.87998L6.24045 7.53998C6.33409 7.64149 6.44775 7.7225 6.57424 7.7779C6.70074 7.83331 6.83735 7.86191 6.97545 7.86191C7.11355 7.86191 7.25016 7.83331 7.37666 7.7779C7.50316 7.7225 7.61681 7.64149 7.71045 7.53998Z" fill="black"/>
</svg>
