<svg width="8" height="14" viewBox="0 0 8 14" fill="none" xmlns="http://www.w3.org/2000/svg">
<path d="M0.459286 7.70996L6.11929 13.36C6.21225 13.4537 6.32285 13.5281 6.44471 13.5789C6.56657 13.6296 6.69727 13.6558 6.82929 13.6558C6.9613 13.6558 7.092 13.6296 7.21386 13.5789C7.33572 13.5281 7.44632 13.4537 7.53929 13.36C7.72554 13.1726 7.83008 12.9191 7.83008 12.655C7.83008 12.3908 7.72554 12.1373 7.53929 11.95L2.58929 6.94996L7.53929 1.99996C7.72554 1.8126 7.83008 1.55915 7.83008 1.29496C7.83008 1.03078 7.72554 0.777327 7.53929 0.589964C7.44667 0.495476 7.33623 0.420305 7.21435 0.368809C7.09248 0.317312 6.96159 0.290514 6.82929 0.289965C6.69698 0.290514 6.5661 0.317312 6.44422 0.368809C6.32235 0.420305 6.2119 0.495476 6.11929 0.589964L0.459286 6.23996C0.357781 6.33361 0.276772 6.44726 0.221365 6.57376C0.165957 6.70026 0.137353 6.83686 0.137353 6.97496C0.137353 7.11307 0.165957 7.24967 0.221365 7.37617C0.276772 7.50267 0.357781 7.61632 0.459286 7.70996Z" fill="#5B3A24"/>
</svg>
